# xmcd
#
# Track frame offsets:
#	150
#	15184
#	31673
#	49126
#	70136
#	84323
#	101259
#	125274
#	141261
#	156548
#	179827
#	196957
#	214198
#	231400
#	252819
#	282215
#
# Disc length: 4786 seconds
#
# Revision: 4
# Processed by: cddbd v1.5.2PL0 Copyright (c) Steve Scherf et al.
# Submitted via: dBpowerAMP V4.0
#
DISCID=db12b010
DTITLE=Various Artist - CMT Most Wanted Volume 1
DYEAR=2003
DGENRE=Country
TTITLE0=Mark Wills - 19 Somethin'
TTITLE1=Jennifer Hanson - Beautiful Goodbye
TTITLE2=Joe Nichols - Brokenheartsville
TTITLE3=Jo Dee Messina - Burn
TTITLE4=Dwight Yoakam - The Back of Your Hand
TTITLE5=Chris Cagle - What a Beautiful Day
TTITLE6=Cross Canadian Ragweed - 17
TTITLE7=Rhonda Vincent - You Can't Take It With You When You Go
TTITLE8=Trace Adkins - Chrome
TTITLE9=Montgomery Gentry - A Cold One Comin' On
TTITLE10=Alison Krauss - Maybe
TTITLE11=Dierks Bentley - What Was I Thinkin'
TTITLE12=LeAnn Rimes - I Need You
TTITLE13=Keith Urban - Raining on Sunday
TTITLE14=Rascal Flatts - I'm Movin' On
TTITLE15=DATA
EXTD=
EXTT0=
EXTT1=
EXTT2=
EXTT3=
EXTT4=
EXTT5=
EXTT6=
EXTT7=
EXTT8=
EXTT9=
EXTT10=
EXTT11=
EXTT12=
EXTT13=
EXTT14=
EXTT15=
PLAYORDER=
